<svg width="20" height="20" viewBox="0 0 20 20" fill="none" xmlns="http://www.w3.org/2000/svg">
<path d="M15.5303 7.53033C15.8232 7.23744 15.8232 6.76256 15.5303 6.46967C15.2374 6.17678 14.7626 6.17678 14.4697 6.46967L15.5303 7.53033ZM7.99998 14L7.46965 14.5304C7.76255 14.8232 8.23742 14.8232 8.53031 14.5303L7.99998 14ZM5.53027 10.4697C5.23737 10.1768 4.7625 10.1768 4.46961 10.4697C4.17671 10.7626 4.17672 11.2374 4.46961 11.5303L5.53027 10.4697ZM14.4697 6.46967L7.46965 13.4697L8.53031 14.5303L15.5303 7.53033L14.4697 6.46967ZM4.46961 11.5303L7.46965 14.5304L8.53031 13.4697L5.53027 10.4697L4.46961 11.5303ZM18.25 10C18.25 14.5563 14.5563 18.25 10 18.25V19.75C15.3848 19.75 19.75 15.3848 19.75 10H18.25ZM10 18.25C5.44365 18.25 1.75 14.5563 1.75 10H0.25C0.25 15.3848 4.61522 19.75 10 19.75V18.25ZM1.75 10C1.75 5.44365 5.44365 1.75 10 1.75V0.25C4.61522 0.25 0.25 4.61522 0.25 10H1.75ZM10 1.75C14.5563 1.75 18.25 5.44365 18.25 10H19.75C19.75 4.61522 15.3848 0.25 10 0.25V1.75Z" fill="currentColor"/>
</svg>
