<svg width="21" height="21" viewBox="0 0 21 21" fill="none" xmlns="http://www.w3.org/2000/svg">
<path d="M20.197 1.53033C20.4899 1.23744 20.4899 0.762563 20.197 0.46967C19.9041 0.176777 19.4292 0.176777 19.1364 0.46967L20.197 1.53033ZM0.46967 19.1364C0.176777 19.4292 0.176777 19.9041 0.46967 20.197C0.762563 20.4899 1.23744 20.4899 1.53033 20.197L0.46967 19.1364ZM1.53035 0.46967C1.23746 0.176777 0.762582 0.176777 0.469689 0.46967C0.176795 0.762563 0.176795 1.23744 0.469689 1.53033L1.53035 0.46967ZM19.1364 20.197C19.4293 20.4899 19.9041 20.4899 20.197 20.197C20.4899 19.9041 20.4899 19.4292 20.197 19.1364L19.1364 20.197ZM19.1364 0.46967L0.46967 19.1364L1.53033 20.197L20.197 1.53033L19.1364 0.46967ZM0.469689 1.53033L19.1364 20.197L20.197 19.1364L1.53035 0.46967L0.469689 1.53033Z" fill="currentColor"/>
</svg>
