<svg width="17" height="16" viewBox="0 0 17 16" fill="none" xmlns="http://www.w3.org/2000/svg">
<path d="M5.16667 14.4167C4.75245 14.4167 4.41667 14.7525 4.41667 15.1667C4.41667 15.5809 4.75245 15.9167 5.16667 15.9167V14.4167ZM11.8333 15.9167C12.2475 15.9167 12.5833 15.5809 12.5833 15.1667C12.5833 14.7525 12.2475 14.4167 11.8333 14.4167V15.9167ZM7.75 15.1667C7.75 15.5809 8.08579 15.9167 8.5 15.9167C8.91421 15.9167 9.25 15.5809 9.25 15.1667H7.75ZM4.33333 1V0.25C3.91912 0.25 3.58333 0.585786 3.58333 1L4.33333 1ZM12.6667 1H13.4167C13.4167 0.585786 13.0809 0.25 12.6667 0.25V1ZM12.6667 1.91667C12.2525 1.91667 11.9167 2.25245 11.9167 2.66667C11.9167 3.08088 12.2525 3.41667 12.6667 3.41667V1.91667ZM12.6667 6.08333C12.2525 6.08333 11.9167 6.41912 11.9167 6.83333C11.9167 7.24755 12.2525 7.58333 12.6667 7.58333V6.08333ZM1 4.75H0.25H1ZM3.08333 2.66667V3.41667V2.66667ZM3.08333 6.83333V7.58333V6.83333ZM4.33333 7.58333C4.74755 7.58333 5.08333 7.24755 5.08333 6.83333C5.08333 6.41912 4.74755 6.08333 4.33333 6.08333V7.58333ZM4.33333 3.41667C4.74755 3.41667 5.08333 3.08088 5.08333 2.66667C5.08333 2.25245 4.74755 1.91667 4.33333 1.91667V3.41667ZM5.16667 15.9167H11.8333V14.4167H5.16667V15.9167ZM9.25 15.1667V11.8333H7.75V15.1667H9.25ZM4.33333 1.75H12.6667V0.25H4.33333V1.75ZM11.9167 1V7.66667H13.4167V1H11.9167ZM5.08333 7.66667V1H3.58333V7.66667H5.08333ZM8.5 11.0833C6.61303 11.0833 5.08333 9.55364 5.08333 7.66667H3.58333C3.58333 10.3821 5.7846 12.5833 8.5 12.5833V11.0833ZM11.9167 7.66667C11.9167 9.55364 10.387 11.0833 8.5 11.0833V12.5833C11.2154 12.5833 13.4167 10.3821 13.4167 7.66667H11.9167ZM15.25 4.75C15.25 5.48638 14.653 6.08333 13.9167 6.08333V7.58333C15.4815 7.58333 16.75 6.31481 16.75 4.75H15.25ZM13.9167 3.41667C14.653 3.41667 15.25 4.01362 15.25 4.75H16.75C16.75 3.18519 15.4815 1.91667 13.9167 1.91667V3.41667ZM13.9167 1.91667H12.6667V3.41667H13.9167V1.91667ZM13.9167 6.08333H12.6667V7.58333H13.9167V6.08333ZM1.75 4.75C1.75 4.01362 2.34695 3.41667 3.08333 3.41667V1.91667C1.51853 1.91667 0.25 3.18519 0.25 4.75H1.75ZM3.08333 6.08333C2.34695 6.08333 1.75 5.48638 1.75 4.75H0.25C0.25 6.31481 1.51853 7.58333 3.08333 7.58333L3.08333 6.08333ZM3.08333 7.58333H4.33333V6.08333H3.08333V7.58333ZM3.08333 3.41667H4.33333V1.91667L3.08333 1.91667V3.41667Z" fill="currentColor"/>
</svg>
