<svg width="20" height="20" viewBox="0 0 20 20" fill="none" xmlns="http://www.w3.org/2000/svg">
<path d="M10.75 5C10.75 4.58579 10.4142 4.25 10 4.25C9.58579 4.25 9.25 4.58579 9.25 5H10.75ZM9.25 12C9.25 12.4142 9.58579 12.75 10 12.75C10.4142 12.75 10.75 12.4142 10.75 12H9.25ZM10.75 14.99C10.75 14.5758 10.4142 14.24 10 14.24C9.58579 14.24 9.25 14.5758 9.25 14.99H10.75ZM9.25 15C9.25 15.4142 9.58579 15.75 10 15.75C10.4142 15.75 10.75 15.4142 10.75 15H9.25ZM9.25 5V12H10.75V5H9.25ZM9.25 14.99V15H10.75V14.99H9.25ZM18.25 10C18.25 14.5563 14.5563 18.25 10 18.25V19.75C15.3848 19.75 19.75 15.3848 19.75 10H18.25ZM10 18.25C5.44365 18.25 1.75 14.5563 1.75 10H0.25C0.25 15.3848 4.61522 19.75 10 19.75V18.25ZM1.75 10C1.75 5.44365 5.44365 1.75 10 1.75V0.25C4.61522 0.25 0.25 4.61522 0.25 10H1.75ZM10 1.75C14.5563 1.75 18.25 5.44365 18.25 10H19.75C19.75 4.61522 15.3848 0.25 10 0.25V1.75Z" fill="currentColor"/>
</svg>
