<svg width="18" height="20" viewBox="0 0 18 20" fill="none" xmlns="http://www.w3.org/2000/svg">
<path d="M9 19L8.69071 19.6833C8.8873 19.7722 9.1127 19.7722 9.30929 19.6833L9 19ZM16.25 9C16.25 12.982 12.9996 16.3663 8.69071 18.3167L9.30929 19.6833C13.837 17.6337 17.75 13.8545 17.75 9H16.25ZM9.30929 18.3167C5.00044 16.3663 1.75 12.982 1.75 9H0.25C0.25 13.8545 4.163 17.6337 8.69071 19.6833L9.30929 18.3167ZM1.75 9C1.75 4.99594 4.99594 1.75 9 1.75V0.25C4.16751 0.25 0.25 4.16751 0.25 9H1.75ZM9 1.75C13.0041 1.75 16.25 4.99594 16.25 9H17.75C17.75 4.16751 13.8325 0.25 9 0.25V1.75ZM11.25 9C11.25 10.2426 10.2426 11.25 9 11.25V12.75C11.0711 12.75 12.75 11.0711 12.75 9H11.25ZM9 11.25C7.75736 11.25 6.75 10.2426 6.75 9H5.25C5.25 11.0711 6.92893 12.75 9 12.75V11.25ZM6.75 9C6.75 7.75736 7.75736 6.75 9 6.75V5.25C6.92893 5.25 5.25 6.92893 5.25 9H6.75ZM9 6.75C10.2426 6.75 11.25 7.75736 11.25 9H12.75C12.75 6.92893 11.0711 5.25 9 5.25V6.75Z" fill="currentColor"/>
</svg>
