<svg width="24" height="24" viewBox="0 0 24 24" fill="none" xmlns="http://www.w3.org/2000/svg">
<path d="M9.12784 16.5H14.8722V15H9.12784V16.5ZM14.8722 16.5C17.0138 16.5 18.75 18.2362 18.75 20.3778H20.25C20.25 17.4077 17.8423 15 14.8722 15V16.5ZM9.12784 15C6.15774 15 3.75 17.4077 3.75 20.3778H5.25C5.25 18.2362 6.98617 16.5 9.12784 16.5V15ZM15 8.25C15 9.90685 13.6569 11.25 12 11.25V12.75C14.4853 12.75 16.5 10.7353 16.5 8.25H15ZM12 11.25C10.3431 11.25 9 9.90685 9 8.25H7.5C7.5 10.7353 9.51472 12.75 12 12.75V11.25ZM9 8.25C9 6.59315 10.3431 5.25 12 5.25V3.75C9.51472 3.75 7.5 5.76472 7.5 8.25H9ZM12 5.25C13.6569 5.25 15 6.59315 15 8.25H16.5C16.5 5.76472 14.4853 3.75 12 3.75V5.25ZM22.5 12C22.5 17.799 17.799 22.5 12 22.5V24C18.6274 24 24 18.6274 24 12H22.5ZM12 22.5C6.20101 22.5 1.5 17.799 1.5 12H0C0 18.6274 5.37258 24 12 24V22.5ZM1.5 12C1.5 6.20101 6.20101 1.5 12 1.5V0C5.37258 0 0 5.37258 0 12H1.5ZM12 1.5C17.799 1.5 22.5 6.20101 22.5 12H24C24 5.37258 18.6274 0 12 0V1.5Z"/>
</svg>
