<svg width="20" height="21" viewBox="0 0 20 21" fill="none" xmlns="http://www.w3.org/2000/svg">
<path d="M10.8135 15.49C10.8135 15.0758 10.4777 14.74 10.0635 14.74C9.64926 14.74 9.31348 15.0758 9.31348 15.49H10.8135ZM9.31348 15.5C9.31348 15.9142 9.64926 16.25 10.0635 16.25C10.4777 16.25 10.8135 15.9142 10.8135 15.5H9.31348ZM9.31348 12.5C9.31348 12.9142 9.64926 13.25 10.0635 13.25C10.4777 13.25 10.8135 12.9142 10.8135 12.5H9.31348ZM6.33935 7.48654C6.2315 7.88647 6.46827 8.2981 6.8682 8.40595C7.26812 8.5138 7.67976 8.27702 7.78761 7.8771L6.33935 7.48654ZM9.31348 15.49V15.5H10.8135V15.49H9.31348ZM12.3135 8.40909C12.3135 9.00706 11.9414 9.32322 11.141 9.86897C10.4647 10.3301 9.31348 11.0419 9.31348 12.5H10.8135C10.8135 11.9581 11.1622 11.6699 11.986 11.1083C12.6855 10.6313 13.8135 9.90203 13.8135 8.40909H12.3135ZM10.0635 6.25C11.3502 6.25 12.3135 7.23398 12.3135 8.40909H13.8135C13.8135 6.37091 12.1435 4.75 10.0635 4.75V6.25ZM7.78761 7.8771C8.03086 6.97508 8.9552 6.25 10.0635 6.25V4.75C8.33125 4.75 6.77282 5.87913 6.33935 7.48654L7.78761 7.8771ZM18.3135 10.5C18.3135 15.0563 14.6198 18.75 10.0635 18.75V20.25C15.4483 20.25 19.8135 15.8848 19.8135 10.5H18.3135ZM10.0635 18.75C5.50713 18.75 1.81348 15.0563 1.81348 10.5H0.313477C0.313477 15.8848 4.6787 20.25 10.0635 20.25V18.75ZM1.81348 10.5C1.81348 5.94365 5.50713 2.25 10.0635 2.25V0.75C4.6787 0.75 0.313477 5.11522 0.313477 10.5H1.81348ZM10.0635 2.25C14.6198 2.25 18.3135 5.94365 18.3135 10.5H19.8135C19.8135 5.11522 15.4483 0.75 10.0635 0.75V2.25Z" fill="currentColor"/>
</svg>
