<svg width="24" height="18" viewBox="0 0 24 18" fill="none" xmlns="http://www.w3.org/2000/svg">
<path d="M15.5964 16.4512C15.5899 16.453 15.5826 16.4551 15.5746 16.4575C15.556 16.4632 15.5331 16.4709 15.5071 16.4812C14.3459 16.8832 13.1285 17.0882 11.9031 17.0886C10.6372 17.075 9.38131 16.8546 8.18281 16.4355C6.04256 15.6675 4.1809 14.2456 2.85075 12.3585C1.52097 10.4718 0.787065 8.21171 0.75 5.88249V4.99707H23.0351V5.88483C22.972 10.7041 19.8417 14.8724 15.5964 16.4512ZM15.6295 16.4424C15.6319 16.4418 15.6323 16.4417 15.6298 16.4423L15.6295 16.4424Z" stroke="currentColor" fill="#fff" stroke-width="1.5"/>
<path d="M23.7851 0H0V2.97314H23.7851V0Z" fill="currentColor"/>
</svg>
