<svg width="27" height="27" viewBox="0 0 27 27" fill="none" xmlns="http://www.w3.org/2000/svg">
<path d="M22.5007 9C22.5007 9 22.5017 7.50012 22.5012 6.5001C22.5007 5.50008 21.5013 4.5 20.5013 4.50004L16.7507 4.50004M4.50067 18C4.50067 18 4.49964 19.4999 4.50013 20.4999C4.50062 21.5 5.50008 22.5 6.50008 22.5H10.2507M10.2507 4.5C10.2507 4.5 7.5001 4.50004 6.5001 4.5C5.5001 4.49996 4.50063 5.50004 4.50014 6.50006C4.49965 7.50008 4.50071 9 4.50071 9M16.7507 22.5L20.5007 22.5C21.5007 22.5 22.5002 21.5 22.5007 20.4999C22.5012 19.4999 22.5007 18 22.5007 18" stroke="currentColor" stroke-width="2" stroke-linecap="round" stroke-linejoin="round"/>
<path d="M4.75 13.5L22.25 13.5" stroke="currentColor" stroke-width="1.5" stroke-linecap="round"/>
</svg>
